<?xml version="1.0" ?><!DOCTYPE svg  PUBLIC '-//W3C//DTD SVG 1.1//EN'  'http://www.w3.org/Graphics/SVG/1.1/DTD/svg11.dtd'><svg enable-background="new 0 0 128 128" id="Слой_1" version="1.1" viewBox="0 0 128 128" xml:space="preserve" xmlns="http://www.w3.org/2000/svg" xmlns:xlink="http://www.w3.org/1999/xlink"><g><rect fill="#3EBBC4" height="6.2" width="4" x="14.3" y="90.2"/><path d="M91.6,90.9H45.2l-2.9-7.7l-14,5h-8.8v12.7v2V126h8.1l4.4-23.1h0.8v11.3h4v-11.3h2.6l5.3-8h46.7V90.9z    M24.4,122h-0.8v-19.1h4.5L24.4,122z M37.4,98.9H23.6v-6.7h5.5L40,88.3l1.6,4.3L37.4,98.9z" fill="#3EBBC4"/><path d="M41.8,77.8L21.2,21.4L2.4,28.3L23,84.7L41.8,77.8z M18.8,26.6l17.8,48.9l-11.3,4.1L7.6,30.7L18.8,26.6z" fill="#3EBBC4"/><rect fill="#3EBBC4" height="4" transform="matrix(-0.9397 0.342 -0.342 -0.9397 92.9706 150.7135)" width="12.4" x="27" y="81.6"/></g><g opacity="0.3"><path d="M119,109.9c-4.9,0-9.2-3-11.1-7.3c-0.8,0.2-1.6,0.3-2.4,0.3c-5.2,0-9.5-4.3-9.5-9.5s4.3-9.5,9.5-9.5   c0.2,0,0.4,0,0.5,0c0.3-4.1,2.8-7.8,6.4-9.6c-0.3-0.9-0.4-1.9-0.4-2.9c0-3.2,1.6-6.1,4.2-7.9c-0.1-0.5-0.2-1.1-0.2-1.6   c0-1.5,0.4-2.8,1.3-4c-0.8-1.2-1.3-2.5-1.3-4V31c0-3.9,3.1-7,7-7c0.5,0,0.9,0,1.4,0.1l1.6,0.3v83.2l-1,0.6   C123.2,109.3,121.1,109.9,119,109.9z M110.6,96.8l0.6,2.7c0.8,3.7,4.1,6.4,7.8,6.4c1,0,2-0.2,3-0.6V58.9l-0.8,0.6   c-0.8,0.6-1.2,1.5-1.2,2.4c0,0.5,0.1,1,0.4,1.5l1.2,2l-2.2,0.9c-2.1,0.8-3.5,2.8-3.5,5.1c0,1,0.3,2,0.8,2.9l1.4,2.2l-2.5,0.7   c-3.4,1-5.7,4.2-5.7,7.7c0,0.4,0,0.7,0.1,1.2l0.5,3.4l-3.2-1.2c-0.6-0.2-1.3-0.4-1.9-0.4c-3,0-5.5,2.5-5.5,5.5c0,3,2.5,5.5,5.5,5.5   c0.9,0,1.9-0.2,2.7-0.7L110.6,96.8z M122,28.2c-1.2,0.4-2,1.5-2,2.8v22.9c0,0.9,0.4,1.8,1.2,2.4l0.8,0.6V28.2z" fill="#3EBBC4"/></g><g opacity="0.3"><rect fill="#3EBBC4" height="4" width="4" x="84.5" y="58.7"/></g><g opacity="0.3"><rect fill="#3EBBC4" height="4" width="4" x="94.5" y="18.7"/></g><g opacity="0.3"><rect fill="#3EBBC4" height="4" width="4" x="54.5" y="38.7"/></g></svg>