<?xml version="1.0" ?><!DOCTYPE svg  PUBLIC '-//W3C//DTD SVG 1.1//EN'  'http://www.w3.org/Graphics/SVG/1.1/DTD/svg11.dtd'><svg enable-background="new 0 0 128 128" id="Слой_1" version="1.1" viewBox="0 0 128 128" xml:space="preserve" xmlns="http://www.w3.org/2000/svg" xmlns:xlink="http://www.w3.org/1999/xlink"><g><rect fill="#3EBBC4" height="4" width="10" x="59.5" y="39"/><rect fill="#3EBBC4" height="4" width="10" x="59.5" y="32"/><path d="M115.5,26V9h-4v3H91.3c-1-5.7-5.9-10-11.8-10h-30c-5.9,0-10.9,4.3-11.8,10H16.5V9h-4v17h4v-3h21v18   c0,6,4.5,11,10.3,11.9L49.9,67c0.5,3,2.7,5.3,5.6,5.8V101h4v25h10v-25h4V72.9c2.9-0.5,5.2-2.8,5.6-5.8l2.1-14.2   C87,52,91.5,47,91.5,41V23h20v3H115.5z M16.5,19v-3h21v3H16.5z M59.5,87h10v3h-10V87z M59.5,83v-3h10v3H59.5z M59.5,76v-3h10v3   H59.5z M63.5,122v-3h2v3H63.5z M65.5,115h-2v-14h2V115z M59.5,97v-3h10v3H59.5z M72.2,69H56.8c-1.5,0-2.7-1.1-3-2.6l-2-13.4h25.4   l-2,13.4C74.9,67.9,73.7,69,72.2,69z M87.5,41c0,4.4-3.6,8-8,8h-30c-4.4,0-8-3.6-8-8V14c0-4.4,3.6-8,8-8h30c4.4,0,8,3.6,8,8V41z    M91.5,19v-3h20v3H91.5z" fill="#3EBBC4"/></g></svg>