<?xml version="1.0" ?><!DOCTYPE svg  PUBLIC '-//W3C//DTD SVG 1.1//EN'  'http://www.w3.org/Graphics/SVG/1.1/DTD/svg11.dtd'><svg enable-background="new 0 0 128 128" id="Слой_1" version="1.1" viewBox="0 0 128 128" xml:space="preserve" xmlns="http://www.w3.org/2000/svg" xmlns:xlink="http://www.w3.org/1999/xlink"><g><rect fill="#3EBBC4" height="4" width="10" x="98" y="75.8"/><rect fill="#3EBBC4" height="4" width="10" x="98" y="69.8"/><path d="M76.1,87.8H116V61c0-5.9-2.3-11.4-6.4-15.6L90.8,26.7c-3.8-3.8-9.8-4.6-14.4-1.9l-10.6,7.7   c-5.9-3.1-12.6-4.9-19.7-4.9c-23.2,0-42,18.8-42,42v2l6.9,0c0.4,7.1,2.9,13.6,6.9,18.9L4,90.8l0.1,4l17.2-0.3   c6.4,6.4,15.1,10.3,24.8,10.3c9.5,0,18.2-3.8,24.5-10H124v-4H74.1C74.8,89.8,75.5,88.8,76.1,87.8z M78.4,28.2   c3.1-1.7,7-1.2,9.5,1.3l18.7,18.7c3.4,3.4,5.3,7.9,5.3,12.7v22.7H78.2c1.7-3.8,2.7-7.8,2.9-12.1H88v-2c0-14.5-7.4-27.3-18.6-34.8   L78.4,28.2z M46,31.6c20.3,0,36.9,16,37.9,36l-14.3,0c-1-12.1-11.2-21.7-23.6-21.7s-22.6,9.6-23.6,21.7H8.1   C9.1,47.6,25.7,31.6,46,31.6z M46,100.8c-16.5,0-30-12.9-31.1-29.1l5.1,0c0.1,0.8,0.1,1.6,0.3,2.5l3.9-0.7   c-0.1-0.6-0.2-1.2-0.2-1.8l2.2,0v-2c0-10.9,8.8-19.7,19.7-19.7c10.9,0,19.7,8.8,19.7,19.7v2h11.4C76,87.9,62.5,100.8,46,100.8z" fill="#3EBBC4"/><path d="M96.3,57.9c1,1,2.4,1.6,3.9,1.6c1.5,0,2.9-0.6,3.9-1.6c1-1,1.6-2.4,1.6-3.9c0-1.5-0.6-2.9-1.6-3.9   L86.3,32.2c-1-1-2.4-1.6-3.9-1.6c-1.5,0-2.9,0.6-3.9,1.6c-1,1-1.6,2.4-1.6,3.9c0,1.5,0.6,2.9,1.6,3.9L96.3,57.9z M81.3,35.1   c0.3-0.3,0.7-0.4,1.1-0.4c0.4,0,0.8,0.2,1.1,0.4l17.8,17.8c0.6,0.6,0.6,1.6,0,2.2c-0.6,0.6-1.6,0.6-2.2,0L81.3,37.2   c-0.3-0.3-0.4-0.7-0.4-1.1C80.9,35.7,81,35.4,81.3,35.1z" fill="#3EBBC4"/><path d="M46,64.2c-3,0-5.4,2.4-5.4,5.4s2.4,5.4,5.4,5.4s5.4-2.4,5.4-5.4S49,64.2,46,64.2z M46,71.1   c-0.8,0-1.4-0.6-1.4-1.4s0.6-1.4,1.4-1.4s1.4,0.6,1.4,1.4S46.8,71.1,46,71.1z" fill="#3EBBC4"/><path d="M28.1,82.6l-3.2,2.3c4.9,6.8,12.8,10.8,21.1,10.8v-4C38.9,91.8,32.3,88.3,28.1,82.6z" fill="#3EBBC4"/></g></svg>