<?xml version="1.0" ?><!DOCTYPE svg  PUBLIC '-//W3C//DTD SVG 1.1//EN'  'http://www.w3.org/Graphics/SVG/1.1/DTD/svg11.dtd'><svg enable-background="new 0 0 128 128" id="Слой_1" version="1.1" viewBox="0 0 128 128" xml:space="preserve" xmlns="http://www.w3.org/2000/svg" xmlns:xlink="http://www.w3.org/1999/xlink"><g><path d="M109,67H74c-5-10-14.3-17.5-25.5-20V16h2v-4h-21v4h2v31C14.6,50.8,2,66,2,84v2h6.1c1,16.7,15,30,31.9,30   c11.4,0,21.4-6,27.1-15H109c9.4,0,17-7.6,17-17S118.4,67,109,67z M35.5,16h9v30.3C43,46.1,41.5,46,40,46s-3,0.1-4.5,0.3V16z    M40,112c-15.4,0-28-12.6-28-28c0-1.4,0.1-2.8,0.3-4.2C14.4,66.2,26.3,56,40,56c15.4,0,28,12.6,28,28S55.4,112,40,112z M40,52   C24.3,52,10.7,63.7,8.4,79.2C8.2,80.1,8.1,81,8.1,82h-2c1-17.8,15.9-32,33.9-32c18.7,0,34,15.3,34,34c0,4.5-0.9,8.9-2.6,13h-2.2   C71,93,72,88.6,72,84C72,66.4,57.6,52,40,52z M109,97H75.7c1.5-4.2,2.3-8.5,2.3-13c0-4.6-0.8-8.9-2.3-13H109c7.2,0,13,5.8,13,13   S116.2,97,109,97z" fill="#3EBBC4"/><rect fill="#3EBBC4" height="4" width="10" x="99" y="73"/><rect fill="#3EBBC4" height="4" width="10" x="99" y="79"/><path d="M22.1,96.8l-3.2,2.3C23.8,106,31.7,110,40,110v-4C32.9,106,26.3,102.6,22.1,96.8z" fill="#3EBBC4"/><path d="M14,84c0,1.4,0.1,2.9,0.4,4.3l3.9-0.7C18.1,86.5,18,85.2,18,84H14z" fill="#3EBBC4"/><path d="M40,72c-6.6,0-12,5.4-12,12s5.4,12,12,12s12-5.4,12-12S46.6,72,40,72z M40,92c-4.4,0-8-3.6-8-8s3.6-8,8-8   s8,3.6,8,8S44.4,92,40,92z" fill="#3EBBC4"/><path d="M40,79c-2.8,0-5,2.2-5,5s2.2,5,5,5s5-2.2,5-5S42.8,79,40,79z M40,85c-0.6,0-1-0.4-1-1s0.4-1,1-1s1,0.4,1,1   S40.6,85,40,85z" fill="#3EBBC4"/></g></svg>