<?xml version="1.0" ?><!DOCTYPE svg  PUBLIC '-//W3C//DTD SVG 1.1//EN'  'http://www.w3.org/Graphics/SVG/1.1/DTD/svg11.dtd'><svg enable-background="new 0 0 128 128" id="Слой_1" version="1.1" viewBox="0 0 128 128" xml:space="preserve" xmlns="http://www.w3.org/2000/svg" xmlns:xlink="http://www.w3.org/1999/xlink"><g><path d="M3.4,95.8L7.8,98l0.5,0c2.1,0,4.1-1.2,5-3.1l8.6-17.3l-3.6-1.8l8.1-16.3l8.5-4.3V60h12h2h10v-5v-2   c0-1.7,1.3-3,3-3h37c4.8,0,8.9-3.4,9.8-8H124v-4h-15.3c-0.9-4.6-5-8-9.8-8H56.5L34.9,40.8v10l-11.5,5.7L14.7,74l-3.5-1.8L2.6,89.5   c-1,1.9-0.7,4.2,0.5,5.9L3.4,95.8z M54.9,56h-6v-1h6V56z M38.9,43.3L57.4,34h41.5c3.3,0,6,2.7,6,6s-2.7,6-6,6h-37   c-3.2,0-5.8,2.1-6.7,5H44.9v5h-6V43.3z M6.2,91.3L13,77.6l3.6,1.8L9.8,93.1c-0.2,0.4-0.6,0.7-1.1,0.9l-2.6-1.3   C5.9,92.2,6,91.7,6.2,91.3z" fill="#3EBBC4"/></g></svg>