<?xml version="1.0" ?><!DOCTYPE svg  PUBLIC '-//W3C//DTD SVG 1.1//EN'  'http://www.w3.org/Graphics/SVG/1.1/DTD/svg11.dtd'><svg enable-background="new 0 0 128 128" id="Слой_1" version="1.1" viewBox="0 0 128 128" xml:space="preserve" xmlns="http://www.w3.org/2000/svg" xmlns:xlink="http://www.w3.org/1999/xlink"><g><path d="M36,53.5L36,53.5l14,0.1v-25H36v0.1c-5.7,0.5-10.2,4.9-10.9,10.5H4v4h21.1C25.8,48.7,30.3,53.1,36,53.5z    M40,32.6h6v17h-6V32.6z M29,40.6c0-4.1,3.1-7.4,7-7.9v16.9c-3.9-0.5-7-3.9-7-7.9V40.6z" fill="#3EBBC4"/><rect fill="#3EBBC4" height="4" width="10" x="102" y="30.6"/><rect fill="#3EBBC4" height="4" width="10" x="102" y="36.6"/><path d="M44.5,64.2v4H47v31.2h-2.5v4h19v-4H61V68.2h2.5v-4H56v-6.6h25v10h5h2c1.7,0,3,1.3,3,3v32.8h13   c3.9,0,7-3.1,7-7V57.5c8.4-0.8,15-7.8,15-16.4c0-9.1-7.4-16.5-16.5-16.5H52v31v2v6.6H44.5z M85,63.6v-6h1v6H85z M56,28.6h53.5   c6.9,0,12.5,5.6,12.5,12.5s-5.6,12.5-12.5,12.5H107v42.8c0,1.7-1.3,3-3,3h-9V70.6c0-3.2-2.1-5.8-5-6.7v-6.3h5v-4h-5h-2H56V28.6z    M57,99.4H51V68.2H57V99.4z" fill="#3EBBC4"/></g></svg>