<?xml version="1.0" ?><!DOCTYPE svg  PUBLIC '-//W3C//DTD SVG 1.1//EN'  'http://www.w3.org/Graphics/SVG/1.1/DTD/svg11.dtd'><svg enable-background="new 0 0 128 128" id="Слой_1" version="1.1" viewBox="0 0 128 128" xml:space="preserve" xmlns="http://www.w3.org/2000/svg" xmlns:xlink="http://www.w3.org/1999/xlink"><g><path d="M121,92h-5V64c0-6-4.4-11-10.2-11.8C105,46.4,100,42,94,42h-3v-9c0-8.3-3.2-16.1-9.1-21.9   C76.1,5.2,68.3,2,60,2C42.9,2,29,15.9,29,33l0,83H7l0,10h48l0-10H33l0-83C33,18.1,45.1,6,60,6c7.2,0,14,2.8,19.1,7.9S87,25.8,87,33   v9h-3c-6,0-11,4.4-11.8,10.2C66.4,53,62,58,62,64v28h-5v10h2.7c-0.4,0.9-0.7,1.9-0.7,3c0,3.9,3.1,7,7,7c3.9,0,7-3.1,7-7   c0-1.1-0.3-2.1-0.7-3h33.4c-0.4,0.9-0.7,1.9-0.7,3c0,3.9,3.1,7,7,7c3.9,0,7-3.1,7-7c0-1.1-0.3-2.1-0.7-3h2.7V92z M51,122H11l0-2h40   L51,122z M94,46c3.7,0,6.8,2.6,7.7,6H91v-6H94z M84,46h3v6H76.3C77.2,48.6,80.3,46,84,46z M66,64c0-4.4,3.6-8,8-8h13v10.3   c-3.4,0.9-6,4-6,7.7c0,4.4,3.6,8,8,8s8-3.6,8-8c0-3.7-2.6-6.8-6-7.7V56h13c4.4,0,8,3.6,8,8v28H66V64z M91,70.6c1.2,0.7,2,2,2,3.4   c0,2.2-1.8,4-4,4s-4-1.8-4-4c0-1.5,0.8-2.7,2-3.4V75h4V70.6z M61,96h56v2H61V96z M69,105c0,1.7-1.3,3-3,3s-3-1.3-3-3s1.3-3,3-3   S69,103.3,69,105z M115,105c0,1.7-1.3,3-3,3s-3-1.3-3-3s1.3-3,3-3S115,103.3,115,105z" fill="#3EBBC4"/></g></svg>