<?xml version="1.0" ?><!DOCTYPE svg  PUBLIC '-//W3C//DTD SVG 1.1//EN'  'http://www.w3.org/Graphics/SVG/1.1/DTD/svg11.dtd'><svg enable-background="new 0 0 128 128" id="Слой_1" version="1.1" viewBox="0 0 128 128" xml:space="preserve" xmlns="http://www.w3.org/2000/svg" xmlns:xlink="http://www.w3.org/1999/xlink"><g><path d="M106.1,21.2c-1.1,0-2.2,0.1-3.3,0.3L61,28.3V32H42v20h19v3.7l17,3.1V71h5h2c1.7,0,3,1.3,3,3v32.8h13   c3.9,0,7-3.1,7-7V60.9c10.1-1,18-9.5,18-19.8C126,30.1,117.1,21.2,106.1,21.2z M46,48V36h15v12H46z M82,67v-7.5l1,0.2V67H82z    M106.1,57H104v42.8c0,1.7-1.3,3-3,3h-9V74c0-3.2-2.1-5.8-5-6.7v-11l-22-4V31.7l38.5-6.3c0.9-0.1,1.8-0.2,2.6-0.2   c8.7,0,15.9,7.1,15.9,15.9C122,49.9,114.9,57,106.1,57z" fill="#3EBBC4"/><rect fill="#3EBBC4" height="4" width="10" x="102" y="34"/><rect fill="#3EBBC4" height="4" width="10" x="102" y="40"/><rect fill="#3EBBC4" height="4" width="4" x="13" y="40"/><rect fill="#3EBBC4" height="4" width="4" x="5" y="40"/><rect fill="#3EBBC4" height="4" width="4" x="29" y="40"/><rect fill="#3EBBC4" height="4" width="4" x="21" y="40"/><rect fill="#3EBBC4" height="4" transform="matrix(-0.9486 -0.3164 0.3164 -0.9486 51.9875 75.131)" width="4" x="30.1" y="31.3"/><rect fill="#3EBBC4" height="4" transform="matrix(-0.9486 -0.3164 0.3164 -0.9486 38.0003 67.7985)" width="4" x="22.5" y="28.8"/><rect fill="#3EBBC4" height="4" transform="matrix(-0.9486 -0.3164 0.3164 -0.9486 24.0095 60.4669)" width="4" x="14.9" y="26.3"/><rect fill="#3EBBC4" height="4" transform="matrix(-0.9486 -0.3163 0.3163 -0.9486 10.0258 53.1334)" width="4" x="7.3" y="23.8"/><rect fill="#3EBBC4" height="4" transform="matrix(-0.3164 -0.9486 0.9486 -0.3164 -41.9899 84.149)" width="4" x="7.3" y="55.2"/><rect fill="#3EBBC4" height="4" transform="matrix(-0.3164 -0.9486 0.9486 -0.3164 -29.5996 88.0169)" width="4" x="14.9" y="52.7"/><rect fill="#3EBBC4" height="4" transform="matrix(-0.3164 -0.9486 0.9486 -0.3164 -17.2084 91.885)" width="4" x="22.5" y="50.1"/><rect fill="#3EBBC4" height="4" transform="matrix(-0.3164 -0.9486 0.9486 -0.3164 -4.8178 95.7527)" width="4" x="30.1" y="47.6"/></g></svg>