<?xml version="1.0" ?><!DOCTYPE svg  PUBLIC '-//W3C//DTD SVG 1.1//EN'  'http://www.w3.org/Graphics/SVG/1.1/DTD/svg11.dtd'><svg enable-background="new 0 0 128 128" id="Слой_1" version="1.1" viewBox="0 0 128 128" xml:space="preserve" xmlns="http://www.w3.org/2000/svg" xmlns:xlink="http://www.w3.org/1999/xlink"><g><g><path d="M2,42v2v25h38c4.4,0,8,3.6,8,8v33c0,8.8,7.2,16,16,16s16-7.2,16-16V77c0-4.4,3.6-8,8-8h38V44v-2V2H2V42z     M122,65H88c-6.6,0-12,5.4-12,12v33c0,6.6-5.4,12-12,12s-12-5.4-12-12V77c0-6.6-5.4-12-12-12H6V46h116V65z M122,6v36H6V6H122z" fill="#3EBBC4"/><rect fill="#3EBBC4" height="4" transform="matrix(-0.6098 0.7926 -0.7926 -0.6098 191.2643 -46.1695)" width="32.8" x="90.6" y="22"/><rect fill="#3EBBC4" height="17.8" transform="matrix(0.7862 0.618 -0.618 0.7862 32.1822 -57.0204)" width="4" x="96.5" y="9.1"/><circle cx="64" cy="110" fill="#3EBBC4" r="3"/></g></g></svg>